<?xml version="1.0" encoding="UTF-8"?><svg xmlns="http://www.w3.org/2000/svg" xmlns:xlink="http://www.w3.org/1999/xlink" fill-opacity="1" color-rendering="auto" color-interpolation="auto" text-rendering="auto" stroke="black" stroke-linecap="square" width="618" stroke-miterlimit="10" shape-rendering="auto" stroke-opacity="1" fill="black" stroke-dasharray="none" font-weight="normal" stroke-width="1" height="290" font-family="'Dialog'" font-style="normal" stroke-linejoin="miter" font-size="12px" stroke-dashoffset="0" image-rendering="auto">
  <!--Generated by ySVG 2.5-->
  <defs id="genericDefs"/>
  <g>
    <defs id="defs1">
      <clipPath clipPathUnits="userSpaceOnUse" id="clipPath1">
        <path d="M0 0 L618 0 L618 290 L0 290 L0 0 Z"/>
      </clipPath>
      <clipPath clipPathUnits="userSpaceOnUse" id="clipPath2">
        <path d="M5 -275 L623 -275 L623 15 L5 15 L5 -275 Z"/>
      </clipPath>
    </defs>
    <g fill="white" text-rendering="geometricPrecision" shape-rendering="geometricPrecision" transform="translate(-5,275)" stroke="white">
      <rect x="5" width="618" height="290" y="-275" clip-path="url(#clipPath2)" stroke="none"/>
    </g>
    <g fill="rgb(204,204,255)" text-rendering="geometricPrecision" shape-rendering="geometricPrecision" transform="matrix(1,0,0,1,-5,275)" stroke="rgb(204,204,255)">
      <rect x="328.1085" width="98.0234" height="30" y="-30" clip-path="url(#clipPath2)" stroke="none"/>
    </g>
    <g text-rendering="geometricPrecision" stroke-miterlimit="1.45" shape-rendering="geometricPrecision" font-family="sans-serif" transform="matrix(1,0,0,1,-5,275)" stroke-linecap="butt">
      <text x="335.1085" xml:space="preserve" y="-10.2861" clip-path="url(#clipPath2)" stroke="none">ecm-extender-ri</text>
      <rect fill="none" x="328.1085" width="98.0234" height="30" y="-30" clip-path="url(#clipPath2)"/>
    </g>
    <g fill="rgb(204,204,255)" text-rendering="geometricPrecision" shape-rendering="geometricPrecision" transform="matrix(1,0,0,1,-5,275)" stroke="rgb(204,204,255)">
      <rect x="143.0379" width="110.6973" height="30" y="-90" clip-path="url(#clipPath2)" stroke="none"/>
    </g>
    <g text-rendering="geometricPrecision" stroke-miterlimit="1.45" shape-rendering="geometricPrecision" font-family="sans-serif" transform="matrix(1,0,0,1,-5,275)" stroke-linecap="butt">
      <text x="150.0379" xml:space="preserve" y="-70.2861" clip-path="url(#clipPath2)" stroke="none">ecm-component-ri</text>
      <rect fill="none" x="143.0379" width="110.6973" height="30" y="-90" clip-path="url(#clipPath2)"/>
    </g>
    <g fill="rgb(204,204,255)" text-rendering="geometricPrecision" shape-rendering="geometricPrecision" transform="matrix(1,0,0,1,-5,275)" stroke="rgb(204,204,255)">
      <rect x="40.0018" width="120.0488" height="30" y="-150" clip-path="url(#clipPath2)" stroke="none"/>
    </g>
    <g text-rendering="geometricPrecision" stroke-miterlimit="1.45" shape-rendering="geometricPrecision" font-family="sans-serif" transform="matrix(1,0,0,1,-5,275)" stroke-linecap="butt">
      <text x="47.0018" xml:space="preserve" y="-130.2861" clip-path="url(#clipPath2)" stroke="none">ecm-component-api</text>
      <rect fill="none" x="40.0018" width="120.0488" height="30" y="-150" clip-path="url(#clipPath2)"/>
    </g>
    <g fill="rgb(204,204,255)" text-rendering="geometricPrecision" shape-rendering="geometricPrecision" transform="matrix(1,0,0,1,-5,275)" stroke="rgb(204,204,255)">
      <rect x="24.6643" width="90.6992" height="30" y="-210" clip-path="url(#clipPath2)" stroke="none"/>
    </g>
    <g text-rendering="geometricPrecision" stroke-miterlimit="1.45" shape-rendering="geometricPrecision" font-family="sans-serif" transform="matrix(1,0,0,1,-5,275)" stroke-linecap="butt">
      <text x="31.6643" xml:space="preserve" y="-190.2861" clip-path="url(#clipPath2)" stroke="none">ecm-metadata</text>
      <rect fill="none" x="24.6643" width="90.6992" height="30" y="-210" clip-path="url(#clipPath2)"/>
    </g>
    <g fill="rgb(204,204,255)" text-rendering="geometricPrecision" shape-rendering="geometricPrecision" transform="matrix(1,0,0,1,-5,275)" stroke="rgb(204,204,255)">
      <rect x="20.0002" width="100.0273" height="30" y="-260" clip-path="url(#clipPath2)" stroke="none"/>
    </g>
    <g text-rendering="geometricPrecision" stroke-miterlimit="1.45" shape-rendering="geometricPrecision" font-family="sans-serif" transform="matrix(1,0,0,1,-5,275)" stroke-linecap="butt">
      <text x="27.0002" xml:space="preserve" y="-240.2861" clip-path="url(#clipPath2)" stroke="none">ecm-util-method</text>
      <rect fill="none" x="20.0002" width="100.0273" height="30" y="-260" clip-path="url(#clipPath2)"/>
    </g>
    <g fill="yellow" text-rendering="geometricPrecision" shape-rendering="geometricPrecision" transform="matrix(1,0,0,1,-5,275)" stroke="yellow">
      <rect x="145.3636" width="72.0371" height="30" y="-210" clip-path="url(#clipPath2)" stroke="none"/>
    </g>
    <g text-rendering="geometricPrecision" stroke-miterlimit="1.45" shape-rendering="geometricPrecision" font-family="sans-serif" transform="matrix(1,0,0,1,-5,275)" stroke-linecap="butt">
      <text x="152.3636" xml:space="preserve" y="-190.2861" clip-path="url(#clipPath2)" stroke="none">linkage-api</text>
      <rect fill="none" x="145.3636" width="72.0371" height="30" y="-210" clip-path="url(#clipPath2)"/>
    </g>
    <g fill="yellow" text-rendering="geometricPrecision" shape-rendering="geometricPrecision" transform="matrix(1,0,0,1,-5,275)" stroke="yellow">
      <rect x="190.0509" width="108.7109" height="30" y="-150" clip-path="url(#clipPath2)" stroke="none"/>
    </g>
    <g text-rendering="geometricPrecision" stroke-miterlimit="1.45" shape-rendering="geometricPrecision" font-family="sans-serif" transform="matrix(1,0,0,1,-5,275)" stroke-linecap="butt">
      <text x="197.0509" xml:space="preserve" y="-130.2861" clip-path="url(#clipPath2)" stroke="none">capabilitycollector</text>
      <rect fill="none" x="190.0509" width="108.7109" height="30" y="-150" clip-path="url(#clipPath2)"/>
    </g>
    <g fill="rgb(204,204,255)" text-rendering="geometricPrecision" shape-rendering="geometricPrecision" transform="matrix(1,0,0,1,-5,275)" stroke="rgb(204,204,255)">
      <rect x="283.7355" width="186.7695" height="30" y="-90" clip-path="url(#clipPath2)" stroke="none"/>
    </g>
    <g text-rendering="geometricPrecision" stroke-miterlimit="1.45" shape-rendering="geometricPrecision" font-family="sans-serif" transform="matrix(1,0,0,1,-5,275)" stroke-linecap="butt">
      <text x="290.7355" xml:space="preserve" y="-70.2861" clip-path="url(#clipPath2)" stroke="none">ecm-annotation-metadatabuilder</text>
      <rect fill="none" x="283.7355" width="186.7695" height="30" y="-90" clip-path="url(#clipPath2)"/>
    </g>
    <g fill="rgb(204,204,255)" text-rendering="geometricPrecision" shape-rendering="geometricPrecision" transform="matrix(1,0,0,1,-5,275)" stroke="rgb(204,204,255)">
      <rect x="328.7618" width="96.7168" height="30" y="-150" clip-path="url(#clipPath2)" stroke="none"/>
    </g>
    <g text-rendering="geometricPrecision" stroke-miterlimit="1.45" shape-rendering="geometricPrecision" font-family="sans-serif" transform="matrix(1,0,0,1,-5,275)" stroke-linecap="butt">
      <text x="335.7618" xml:space="preserve" y="-130.2861" clip-path="url(#clipPath2)" stroke="none">ecm-annotation</text>
      <rect fill="none" x="328.7618" width="96.7168" height="30" y="-150" clip-path="url(#clipPath2)"/>
    </g>
    <g fill="rgb(204,204,255)" text-rendering="geometricPrecision" shape-rendering="geometricPrecision" transform="matrix(1,0,0,1,-5,275)" stroke="rgb(204,204,255)">
      <rect x="500.5054" width="107.375" height="30" y="-90" clip-path="url(#clipPath2)" stroke="none"/>
    </g>
    <g text-rendering="geometricPrecision" stroke-miterlimit="1.45" shape-rendering="geometricPrecision" font-family="sans-serif" transform="matrix(1,0,0,1,-5,275)" stroke-linecap="butt">
      <text x="507.5054" xml:space="preserve" y="-70.2861" clip-path="url(#clipPath2)" stroke="none">ecm-extender-api</text>
      <rect fill="none" x="500.5054" width="107.375" height="30" y="-90" clip-path="url(#clipPath2)"/>
      <path fill="none" d="M344.4458 -30.0293 L344.4458 -45 L198.3865 -45 L198.3865 -60" clip-path="url(#clipPath2)"/>
      <path fill="none" d="M170.7122 -90.0293 L170.7122 -105 L100.0262 -105 L100.0262 -120" clip-path="url(#clipPath2)"/>
      <path fill="none" d="M70.014 -150.0293 L70.0139 -180" clip-path="url(#clipPath2)"/>
      <path fill="none" d="M70.0139 -210.0391 L70.0139 -230" clip-path="url(#clipPath2)"/>
      <path fill="none" d="M130.0384 -150.0293 L130.0384 -165 L181.3821 -165 L181.3821 -180" clip-path="url(#clipPath2)"/>
      <path fill="none" d="M226.0608 -90.0293 L226.0608 -105 L244.4064 -105 L244.4064 -120" clip-path="url(#clipPath2)"/>
      <path fill="none" d="M377.1202 -30.0293 L377.1202 -60" clip-path="url(#clipPath2)"/>
      <path fill="none" d="M377.1202 -90.0293 L377.1202 -120" clip-path="url(#clipPath2)"/>
      <path fill="none" d="M409.7947 -30.0293 L409.7947 -45 L554.1929 -45 L554.1929 -60" clip-path="url(#clipPath2)"/>
    </g>
  </g>
</svg>
